<svg xmlns="http://www.w3.org/2000/svg" xmlns:xlink="http://www.w3.org/1999/xlink" width="375" height="500" viewBox="0 0 375 420">
  <defs>
    <clipPath id="clip-path">
      <rect id="Rectangle_255" data-name="Rectangle 255" width="115.999" height="233.001" transform="translate(0 0)" fill="#ffdcdc"/>
    </clipPath>
    <clipPath id="clip-path-2">
      <rect id="Rectangle_257" data-name="Rectangle 257" width="307.32" height="275.676"/>
    </clipPath>
    <clipPath id="clip-_2">
      <rect width="375" height="420"/>
    </clipPath>
  </defs>
  <g id="_2" data-name="2" clip-path="url(#clip-_2)">
    <g id="Group_2760" data-name="Group 2760" transform="translate(0.25 -77.417)">
      <g id="Layer_8" data-name="Layer 8" transform="translate(-492.049)">
        <path id="Path_133" data-name="Path 133" d="M867.049,261.653C829.5,265.307,868.6,195,805.125,169.5S720.683,224.15,679.549,205s-6.239-51.352-110.96-39.393c-55.54,6.342-76.79,91.424-76.79,91.424L492.049,449h30.814a14.891,14.891,0,0,0-.377,3.292h0a15.085,15.085,0,0,0,15.041,15.041h37.8a15.042,15.042,0,0,0,0,30.084H747.111a15.042,15.042,0,0,0,0-30.084h40.417a15.085,15.085,0,0,0,15.042-15.041h0a14.891,14.891,0,0,0-.377-3.292h64.856Z" fill="#b6f0b9"/>
        <circle id="Ellipse_10" data-name="Ellipse 10" cx="7.875" cy="7.875" r="7.875" transform="translate(517.508 474.5)" fill="#b6f0b9"/>
        <circle id="Ellipse_11" data-name="Ellipse 11" cx="7.875" cy="7.875" r="7.875" transform="translate(825.793 459.458)" fill="#b6f0b9"/>
        <path id="Path_134" data-name="Path 134" d="M624.582,87s31.83,21,47.4,78.5,48.568-5.669,77.568-13.084-4.691-16.585-22.6,0-37.258,20.223-40.832,3.153S659.354,97,639.7,85,610.964,74.361,624.582,87Z" fill="#b6f0b9"/>
        <rect id="Rectangle_43" data-name="Rectangle 43" width="36.714" height="13.289" rx="1.894" transform="translate(797.31 361.639)" fill="#b6f0b9"/>
        <rect id="Rectangle_44" data-name="Rectangle 44" width="36.714" height="13.289" rx="1.894" transform="translate(810.144 345.806)" fill="#b6f0b9"/>
        <path id="Path_1140" data-name="Path 1140" d="M1.894,0H22.739V13.289H1.894A1.894,1.894,0,0,1,0,11.394v-9.5A1.894,1.894,0,0,1,1.894,0Z" transform="translate(837.31 361.639)" fill="#b6f0b9"/>
      </g>
      <g id="Group_2767" data-name="Group 2767">
        <g id="Group_2635" data-name="Group 2635" transform="translate(-215.524 76.152)">
          <path id="Path_85" data-name="Path 85" d="M296.889,394.471s15.95-2.951,27.753-.622l-4.683,23.391-19.533.438Z" transform="translate(-3.5 -33.829)" fill="#71d26f"/>
          <g id="Group_12" data-name="Group 12" transform="translate(305.676 280.917)">
            <path id="Path_86" data-name="Path 86" d="M336.628,290.127a6.783,6.783,0,0,1,.18-5.227c1.3-2.583,3.191-4.01,3.543-3.982s1.2,2.108.358,4.569S337.588,290.877,336.628,290.127Z" transform="translate(-321.04 -280.917)" fill="#2c9831"/>
            <path id="Path_87" data-name="Path 87" d="M336.019,300.951a6.785,6.785,0,0,1,2.835-4.395c2.438-1.553,4.8-1.806,5.084-1.6s-.056,2.422-2.036,4.105S336.459,302.087,336.019,300.951Z" transform="translate(-320.991 -285.137)" fill="#2c9831"/>
            <path id="Path_88" data-name="Path 88" d="M334.138,311a6.783,6.783,0,0,1,2.835-4.395c2.438-1.553,4.8-1.806,5.085-1.6s-.056,2.423-2.036,4.105S334.578,312.133,334.138,311Z" transform="translate(-320.423 -288.171)" fill="#2c9831"/>
            <path id="Path_89" data-name="Path 89" d="M332.129,322.609a6.785,6.785,0,0,1,2.836-4.395c2.438-1.553,4.8-1.806,5.084-1.6s-.056,2.422-2.036,4.105S332.569,323.745,332.129,322.609Z" transform="translate(-319.817 -291.677)" fill="#2c9831"/>
            <path id="Path_90" data-name="Path 90" d="M330.517,334.587a6.785,6.785,0,0,1,2.836-4.395c2.438-1.553,4.8-1.806,5.084-1.6s-.056,2.423-2.036,4.105S330.957,335.723,330.517,334.587Z" transform="translate(-319.33 -295.293)" fill="#2c9831"/>
            <path id="Path_91" data-name="Path 91" d="M329.043,347.82a6.785,6.785,0,0,1,2.836-4.395c2.438-1.553,4.8-1.806,5.084-1.6s-.056,2.423-2.036,4.105S329.483,348.956,329.043,347.82Z" transform="translate(-318.885 -299.289)" fill="#2c9831"/>
            <path id="Path_92" data-name="Path 92" d="M330.507,302.638a6.785,6.785,0,0,1-3.687-3.709c-1-2.713-.739-5.072-.477-5.309s2.355.572,3.575,2.866S331.711,302.451,330.507,302.638Z" transform="translate(-317.998 -284.741)" fill="#2c9831"/>
            <path id="Path_93" data-name="Path 93" d="M327.575,314.277a6.785,6.785,0,0,1-3.687-3.709c-1-2.713-.739-5.071-.477-5.309s2.355.572,3.575,2.866S328.779,314.09,327.575,314.277Z" transform="translate(-317.113 -288.255)" fill="#2c9831"/>
            <path id="Path_94" data-name="Path 94" d="M325.6,327.359a6.785,6.785,0,0,1-3.687-3.71c-1-2.713-.739-5.071-.477-5.309s2.355.572,3.575,2.866S326.8,327.172,325.6,327.359Z" transform="translate(-316.515 -292.205)" fill="#2c9831"/>
            <path id="Path_95" data-name="Path 95" d="M322.923,339.987a6.786,6.786,0,0,1-4.3-2.979c-1.472-2.488-1.647-4.854-1.433-5.134s2.419.135,4.036,2.17S324.073,339.585,322.923,339.987Z" transform="translate(-315.284 -296.28)" fill="#2c9831"/>
            <path id="Path_96" data-name="Path 96" d="M321.954,351.134a6.786,6.786,0,0,1-4.3-2.979c-1.472-2.487-1.647-4.854-1.432-5.134s2.419.135,4.036,2.17S323.1,350.731,321.954,351.134Z" transform="translate(-314.991 -299.646)" fill="#2c9831"/>
            <path id="Path_97" data-name="Path 97" d="M320.3,363.142a6.786,6.786,0,0,1-4.3-2.979c-1.472-2.487-1.647-4.854-1.432-5.134s2.419.135,4.035,2.17S321.448,362.74,320.3,363.142Z" transform="translate(-314.491 -303.271)" fill="#2c9831"/>
            <path id="Path_98" data-name="Path 98" d="M323.122,354.067s2.867-36.751,8.7-56.721c0,0,.864-3.049,1.167-2.591.26.392-3.313,13.093-5.2,28.291-2.926,23.57-2.819,28.07-3.689,31.5C323.812,355.678,322.991,356.448,323.122,354.067Z" transform="translate(-317.093 -285.081)" fill="#2c9831"/>
          </g>
          <path id="Path_99" data-name="Path 99" d="M306.718,308.318c-1.552.045-2.02-9.621-4.411-13.96s-5.576,2.808-6.782,7.444.044,8.058-4.065,9.475,1.442,12.624-1.1,15.794-7.876-.119-3.23,8.074,7,6.481,1.081,10.884,6.414,13.5,6.414,13.5,4.486,3.217,8.717,3.687,9.466-10.829,13.392-17.707-1.6-5.291-4.54-5.571-.3-3.091,3.166-10.231-3.067-4.426-5.621-5.276,2.516-13.459,1.867-16.687S308.269,308.274,306.718,308.318Zm-6.783,15.213c-.75,10.536,4.161,35.518,4.161,35.518s-4.337-12.184-4.787-23.85,1.208-34.746,1.208-34.746S300.686,313,299.935,323.531Z" transform="translate(0 -3.652)" fill="#2c9831"/>
          <path id="Path_100" data-name="Path 100" d="M341.215,335.09c-1.1-.5,1.857-7.418,1.659-11.267s-4.856.069-7.274,2.9-2.708,5.653-6.065,5.248-3.281,9.323-6.135,10.678-5.47-2.76-5,4.551,2.694,6.914-2.944,7.983-.1,11.629-.1,11.629,2.046,3.775,4.847,5.542,10.3-4.359,15.387-7.837.679-4.246-1.283-5.441.839-2.265,5.692-6.082-.642-4.139-2.14-5.6,6.335-8.562,6.977-11.041S342.315,335.586,341.215,335.09Zm-9.916,8.339c-4.105,7.117-9.16,26.264-9.16,26.264a72.633,72.633,0,0,1,4.757-18.314c3.65-8.316,12.653-23.9,12.653-23.9S335.4,336.312,331.3,343.429Z" transform="translate(-8.34 -12.47)" fill="#2c9832"/>
        </g>
        <g id="Group_2646" data-name="Group 2646" transform="translate(-42)">
          <g id="Group_57" data-name="Group 57" transform="translate(-778.004 -380.899)">
            <path id="Path_358" data-name="Path 358" d="M1141.208,840.768s-35.925-82.916-13.7-86.114,18.383,76.114,18.383,76.114,13.752-63.877,29.582-59.122-23.825,58.482-23.825,58.482,28.5-33.8,38.876-26.172-40.156,36.812-40.156,36.812Z" fill="#0a8e0a"/>
            <line id="Line_121" data-name="Line 121" x2="11.273" y2="63.492" transform="translate(1131.953 771.514)" fill="none" stroke="#fff" stroke-linecap="round" stroke-linejoin="round" stroke-width="0.853"/>
            <line id="Line_122" data-name="Line 122" y1="42.614" x2="21.427" transform="translate(1149.782 785.675)" fill="none" stroke="#fff" stroke-linecap="round" stroke-linejoin="round" stroke-width="0.853"/>
            <line id="Line_123" data-name="Line 123" y1="23.466" x2="32.94" transform="translate(1147.863 812.859)" fill="none" stroke="#fff" stroke-linecap="round" stroke-linejoin="round" stroke-width="0.853"/>
            <path id="Path_359" data-name="Path 359" d="M1146.009,827.371c.029-1.093,10.6-95.706,10.6-95.706" fill="none" stroke="#0a8e0a" stroke-linecap="round" stroke-linejoin="round" stroke-width="0.853"/>
            <circle id="Ellipse_49" data-name="Ellipse 49" cx="4.666" cy="4.666" r="4.666" transform="translate(1151.944 726.999)" fill="#f7bc00"/>
            <path id="Path_360" data-name="Path 360" d="M1146.009,745.939l8.047,8.62L1170,744.8" fill="none" stroke="#0a8e0a" stroke-linecap="round" stroke-linejoin="round" stroke-width="0.853"/>
            <circle id="Ellipse_50" data-name="Ellipse 50" cx="4.666" cy="4.666" r="4.666" transform="translate(1140.45 738.816)" fill="#f7bc00"/>
            <circle id="Ellipse_51" data-name="Ellipse 51" cx="4.666" cy="4.666" r="4.666" transform="translate(1165.334 740.135)" fill="#f7bc00"/>
          </g>
          <g id="Group_68" data-name="Group 68" transform="translate(-778.004 -380.899)">
            <path id="Path_462" data-name="Path 462" d="M1123.8,811.032c-3.636-4.784-7.956,10.231-10.29,20.03.839-19.684,1.649-62.217-7.22-59.416-11.513,3.635,3.854,64.079,3.854,64.079s-20.644-49.665-33.116-45.46,26.384,45.94,26.384,45.94-30.7-11.993-33.58-4.318S1113,840.768,1113,840.768,1129.075,817.976,1123.8,811.032Z" fill="#217a23"/>
            <line id="Line_166" data-name="Line 166" x1="22.067" y1="33.82" transform="translate(1084.461 801.186)" fill="none" stroke="#fff" stroke-linecap="round" stroke-linejoin="round" stroke-width="0.853"/>
            <line id="Line_167" data-name="Line 167" x2="4.078" y2="47.173" transform="translate(1106.528 781.117)" fill="none" stroke="#fff" stroke-linecap="round" stroke-linejoin="round" stroke-width="0.853"/>
            <line id="Line_168" data-name="Line 168" x1="5.807" y2="16.91" transform="translate(1114.443 818.096)" fill="none" stroke="#fff" stroke-linecap="round" stroke-linejoin="round" stroke-width="0.853"/>
            <line id="Line_169" data-name="Line 169" x2="33.1" y2="5.996" transform="translate(1077.506 833.326)" fill="none" stroke="#fff" stroke-linecap="round" stroke-linejoin="round" stroke-width="0.853"/>
            <line id="Line_170" data-name="Line 170" x1="17.073" y1="72.823" transform="translate(1085.912 751.768)" fill="none" stroke="#217a23" stroke-linecap="round" stroke-linejoin="round" stroke-width="0.853"/>
            <path id="Path_463" data-name="Path 463" d="M1075.945,768.518l15.375,6.322,8.879-13.867" fill="none" stroke="#0a8e0a" stroke-linecap="round" stroke-linejoin="round" stroke-width="0.853"/>
            <circle id="Ellipse_69" data-name="Ellipse 69" cx="4.568" cy="4.568" r="4.568" transform="matrix(0.16, -0.987, 0.987, 0.16, 1079.953, 751.926)" fill="#f7bc00"/>
            <circle id="Ellipse_70" data-name="Ellipse 70" cx="4.568" cy="4.568" r="4.568" transform="translate(1095.632 755.079)" fill="#f7bc00"/>
            <circle id="Ellipse_71" data-name="Ellipse 71" cx="4.568" cy="4.568" r="4.568" transform="translate(1150.119 765.433) rotate(-22.5)" fill="#f7bc00"/>
            <circle id="Ellipse_72" data-name="Ellipse 72" cx="4.568" cy="4.568" r="4.568" transform="translate(1069.318 765.433) rotate(-22.5)" fill="#f7bc00"/>
          </g>
        </g>
        <g id="Group_2647" data-name="Group 2647" transform="translate(-1069.317 -385.838)">
          <path id="Path_462-2" data-name="Path 462" d="M1123.8,811.032c-3.636-4.784-7.956,10.231-10.29,20.03.839-19.684,1.649-62.217-7.22-59.416-11.513,3.635,3.854,64.079,3.854,64.079s-20.644-49.665-33.116-45.46,26.384,45.94,26.384,45.94-30.7-11.993-33.58-4.318S1113,840.768,1113,840.768,1129.075,817.976,1123.8,811.032Z" fill="#217a23"/>
          <line id="Line_166-2" data-name="Line 166" x1="22.067" y1="33.82" transform="translate(1084.461 801.186)" fill="none" stroke="#fff" stroke-linecap="round" stroke-linejoin="round" stroke-width="0.853"/>
          <line id="Line_167-2" data-name="Line 167" x2="4.078" y2="47.173" transform="translate(1106.528 781.117)" fill="none" stroke="#fff" stroke-linecap="round" stroke-linejoin="round" stroke-width="0.853"/>
          <line id="Line_168-2" data-name="Line 168" x1="5.807" y2="16.91" transform="translate(1114.443 818.096)" fill="none" stroke="#fff" stroke-linecap="round" stroke-linejoin="round" stroke-width="0.853"/>
          <line id="Line_169-2" data-name="Line 169" x2="33.1" y2="5.996" transform="translate(1077.506 833.326)" fill="none" stroke="#fff" stroke-linecap="round" stroke-linejoin="round" stroke-width="0.853"/>
          <line id="Line_170-2" data-name="Line 170" x1="17.073" y1="72.823" transform="translate(1085.912 751.768)" fill="none" stroke="#217a23" stroke-linecap="round" stroke-linejoin="round" stroke-width="0.853"/>
          <path id="Path_463-2" data-name="Path 463" d="M1075.945,768.518l15.375,6.322,8.879-13.867" fill="none" stroke="#0a8e0a" stroke-linecap="round" stroke-linejoin="round" stroke-width="0.853"/>
          <circle id="Ellipse_69-2" data-name="Ellipse 69" cx="4.568" cy="4.568" r="4.568" transform="matrix(0.16, -0.987, 0.987, 0.16, 1079.953, 751.926)" fill="#f7bc00"/>
          <circle id="Ellipse_70-2" data-name="Ellipse 70" cx="4.568" cy="4.568" r="4.568" transform="translate(1095.632 755.079)" fill="#f7bc00"/>
          <circle id="Ellipse_72-2" data-name="Ellipse 72" cx="4.568" cy="4.568" r="4.568" transform="translate(1069.318 765.433) rotate(-22.5)" fill="#f7bc00"/>
        </g>
      </g>
    </g>
    <g id="Group_2934" data-name="Group 2934" transform="translate(-13.023 -71.146)">
      <g id="Group_2912" data-name="Group 2912" transform="translate(142.962 224.251)" clip-path="url(#clip-path)">
        <g id="Group_2906" data-name="Group 2906" transform="translate(84.448 97.241)">
          <path id="Path_1932" data-name="Path 1932" d="M637.18,174.548l-2.58,5.5a5.886,5.886,0,0,0-.172,4.815h0a6.658,6.658,0,0,1-.172,4.815l-9.631,20.809s-.86,1.72-5.675-.688c-4.987-2.236-4.127-3.955-4.127-3.955l9.631-20.809a6.4,6.4,0,0,1,3.44-3.268h0a5.848,5.848,0,0,0,3.439-3.268l2.58-5.5Z" transform="translate(-614.767 -169.661)" fill="#fff"/>
          <path id="Path_1933" data-name="Path 1933" d="M629.24,175.945l-3.267-1.548c-.172,0-.172-.344-.172-.516l1.2-2.58a.33.33,0,0,1,.516-.172l3.268,1.548c.172,0,.172.344.172.516l-1.2,2.58A.33.33,0,0,1,629.24,175.945Z" transform="translate(-606.826 -171.059)" fill="#fff"/>
        </g>
        <g id="Group_2907" data-name="Group 2907" transform="translate(39.511 86.134)">
          <path id="Path_1934" data-name="Path 1934" d="M593.56,166.6l1.032,6.019A7.778,7.778,0,0,0,597,176.747h0a5.749,5.749,0,0,1,2.408,4.127l3.784,22.7s.344,1.892-4.987,2.752-5.675-.86-5.675-.86l-3.783-22.7a6.446,6.446,0,0,1,1.032-4.643h0a6.446,6.446,0,0,0,1.032-4.643l-1.032-6.019Z" transform="translate(-588.637 -163.16)" fill="#224a53"/>
          <path id="Path_1935" data-name="Path 1935" d="M593.371,168.039l-3.611.516a.37.37,0,0,1-.344-.344l-.516-2.752a.37.37,0,0,1,.344-.344l3.611-.516a.37.37,0,0,1,.344.344l.516,2.752A.37.37,0,0,1,593.371,168.039Z" transform="translate(-588.448 -164.6)" fill="#224a53"/>
        </g>
        <g id="Group_2908" data-name="Group 2908" transform="translate(81.925 84.414)">
          <path id="Path_1936" data-name="Path 1936" d="M620.179,165.6l.172,6.019a5.589,5.589,0,0,0,1.892,4.3h0a6.157,6.157,0,0,1,1.892,4.3l.86,23.045s0,1.892-5.331,2.064c-5.5.172-5.5-1.548-5.5-1.548l-.86-23.045a6.735,6.735,0,0,1,1.548-4.471h0a5.956,5.956,0,0,0,1.548-4.471l-.172-6.019Z" transform="translate(-613.3 -162.161)" fill="#fff"/>
          <path id="Path_1937" data-name="Path 1937" d="M618.927,167.04l-3.611.172a.37.37,0,0,1-.344-.344l-.172-2.752a.37.37,0,0,1,.344-.344l3.611-.172a.37.37,0,0,1,.344.344l.172,2.752C619.443,166.868,619.271,167.04,618.927,167.04Z" transform="translate(-612.22 -163.6)" fill="#fff"/>
        </g>
        <g id="Group_2909" data-name="Group 2909" transform="translate(54.409 94.045)">
          <path id="Path_1938" data-name="Path 1938" d="M600.992,170.3l5.159,3.267a6.345,6.345,0,0,0,4.643.86h0a6.345,6.345,0,0,1,4.643.86l19.605,12.038s1.548,1.032-1.2,5.675c-2.924,4.643-4.471,3.611-4.471,3.611l-19.605-12.038a6.119,6.119,0,0,1-2.751-3.783h0a6.12,6.12,0,0,0-2.752-3.783L599.1,173.74Z" transform="translate(-596.005 -168.408)" fill="#fff"/>
          <path id="Path_1939" data-name="Path 1939" d="M602.287,171.092l-1.892,3.1a.632.632,0,0,1-.516.172l-2.408-1.376a.632.632,0,0,1-.172-.516l1.892-3.1a.632.632,0,0,1,.516-.172l2.408,1.376A.632.632,0,0,1,602.287,171.092Z" transform="translate(-597.3 -169.2)" fill="#fff"/>
        </g>
        <g id="Group_2910" data-name="Group 2910" transform="translate(38.225 101.082)">
          <path id="Path_1940" data-name="Path 1940" d="M626.086,190.331l-5.847-1.548a7.161,7.161,0,0,0-4.643.516h0a5.508,5.508,0,0,1-4.643.516L588.767,183.8s-1.72-.516-.344-5.675c1.376-5.331,3.268-4.815,3.268-4.815l22.185,6.019a5.8,5.8,0,0,1,3.784,2.924h0a7.127,7.127,0,0,0,3.784,2.924l5.847,1.548Z" transform="translate(-587.89 -173.292)" fill="#224a53"/>
          <path id="Path_1941" data-name="Path 1941" d="M610.1,184.741l.86-3.44c0-.172.172-.344.516-.172l2.752.688c.172,0,.344.172.172.516l-.86,3.44c0,.172-.172.344-.516.172l-2.752-.688C610.272,185.085,610.1,184.913,610.1,184.741Z" transform="translate(-571.904 -167.702)" fill="#224a53"/>
        </g>
        <g id="Group_2911" data-name="Group 2911" transform="translate(21.193 107.975)">
          <path id="Path_1942" data-name="Path 1942" d="M640.98,270.193H600.566a10.808,10.808,0,0,1-10.662-9.8l-5.5-68.79h72.746l-5.5,68.79A10.808,10.808,0,0,1,640.98,270.193Z" transform="translate(-573.369 -167.008)" fill="#5bac46"/>
          <path id="Path_1943" data-name="Path 1943" d="M585.6,205.946h26.828c24.592,0,35.943,35.6,20.637,64.147h7.911a10.808,10.808,0,0,0,10.662-9.8l5.5-68.79H584.4Z" transform="translate(-573.369 -167.08)" fill="#265f20"/>
          <path id="Path_1944" data-name="Path 1944" d="M670.7,205.332H580.074l-2.064-20.293a7.179,7.179,0,0,1,7.223-7.739h80.313a7.279,7.279,0,0,1,7.223,7.739Z" transform="translate(-577.985 -177.3)" fill="#5bac46"/>
        </g>
        <g id="Group_2128" data-name="Group 2128" transform="translate(46.97 156.835)">
          <path id="Path_663" data-name="Path 663" d="M187.4,285.244l-2.664-1.519,8.606-.133,4.449,7.62-2.664-1.439-3.563,6.281a10.738,10.738,0,0,0-1.417,5.039c0,.067,0,.135,0,.2l-4.849-8.379S183.192,289.294,187.4,285.244Z" transform="translate(-184.737 -269.018)" fill="#fffbf4"/>
          <path id="Path_664" data-name="Path 664" d="M250.975,324.01l-.05,3.066L246.67,319.6l4.542-7.565.02,3.028,7.22.1a10.73,10.73,0,0,0,5.1-1.181c.06-.03.12-.062.18-.1l-5.015,8.281S256.55,325.754,250.975,324.01Z" transform="translate(-224.499 -287.276)" fill="#fffbf4"/>
          <path id="Path_665" data-name="Path 665" d="M255.243,249.592l2.379-1.383-4.207,7.508-8.824.02,2.582-1.581-3.492-5.947a7.015,7.015,0,0,1,4.909-4.058C252.3,243.432,255.243,249.592,255.243,249.592Z" transform="translate(-222.58 -243.66)" fill="#ece4da"/>
          <path id="Path_666" data-name="Path 666" d="M215.855,320.245v8.911h-7.793a4.257,4.257,0,0,1-3.956-3.956,5.882,5.882,0,0,1,1.359-4.956Z" transform="translate(-197.125 -292.55)" fill="#ece4da"/>
          <path id="Path_667" data-name="Path 667" d="M264.628,283.9l7.668-4.541,3.971,6.705a5.486,5.486,0,0,1-2.163,5.692c-2.55,1.93-4.181,1.084-4.181,1.084Z" transform="translate(-236.028 -266.303)" fill="#ece4da"/>
          <path id="Path_668" data-name="Path 668" d="M202.971,252.02,206.98,245s1.279-2.118,3.277-2.118h9.418a18.625,18.625,0,0,0-3.9,4.569c-1.993,3.146-5.035,8.938-5.035,8.938Z" transform="translate(-196.443 -242.882)" fill="#fffbf4"/>
        </g>
      </g>
      <g id="Group_2927" data-name="Group 2927" transform="translate(36.273 188.688)" clip-path="url(#clip-path-2)">
        <g id="Group_2915" data-name="Group 2915" transform="translate(165.44 74.97)">
          <path id="Path_1948" data-name="Path 1948" d="M582.1,132.8c6.019,2.408,13.586,6.535,16.853,7.223s17.026,1.548,19.605,7.051-2.752,9.459-6.191,8.771c-5.159-1.2-25.8-5.331-25.8-5.331Z" transform="translate(-582.1 -132.8)" fill="#002e49"/>
          <path id="Path_1949" data-name="Path 1949" d="M585.636,147.49s20.637,4.3,25.8,5.331c3.1.516,6.707-1.72,6.191-5.5-9.8.688-31.987-5.331-32.847-10.319l-1.376,1.376Z" transform="translate(-581.164 -129.777)" fill="#0d415d"/>
        </g>
        <g id="Group_2916" data-name="Group 2916" transform="translate(121.615 81.344)">
          <path id="Path_1950" data-name="Path 1950" d="M558.48,137c-2.58,1.72-1.892,8.255-1.376,13.586.344,5.331-1.032,19.261.516,23.045s4.128,5.331,6.363,5.331c2.236.172,4.987-6.879,5.331-8.771s-2.064-20.981-2.064-20.981Z" transform="translate(-556.616 -137)" fill="#0d415d"/>
          <path id="Path_1951" data-name="Path 1951" d="M556.7,165.608a15.27,15.27,0,0,0,.688,5.5c1.548,3.783,4.127,5.331,6.363,5.331,2.236.172,4.987-6.879,5.331-8.771s-2.064-20.981-2.064-20.981l-3.955-5.675-1.376-.516C563.235,143.424,562.2,158.213,556.7,165.608Z" transform="translate(-556.556 -134.481)" fill="#002e49"/>
        </g>
        <path id="Path_1952" data-name="Path 1952" d="M591.484,133.058c2.924,0,8.255-1.2,9.8.688,1.72,2.064,1.892,7.051,3.1,12.382s1.72,9.287-3.1,18.4c-4.643,9.115,3.44,19.777,6.707,36.975H560.873s0-8.943,5.159-16.338c5.675-8.083,4.3-10.662,2.58-15.134s-3.267-7.739-3.783-14.1-7.567-13.758-7.223-15.822c0,0,2.58-1.892,12.21-3.783C579.274,134.434,591.484,133.058,591.484,133.058Z" transform="translate(-434.299 -57.71)" fill="#002e49"/>
        <g id="Group_2917" data-name="Group 2917" transform="translate(126.825 43.813)">
          <path id="Path_1953" data-name="Path 1953" d="M583.778,131.724v3.268s4.3,2.408,4.815,3.1-2.236,9.459-12.554,12.382c-11.866,3.268-15.134-9.631-10.49-11.35,0,0,4.815-1.032,5.5-1.548s1.72-8.771,1.72-8.771Z" transform="translate(-556.857 -105.371)" fill="#ffd4cb"/>
          <path id="Path_1954" data-name="Path 1954" d="M588.491,138.159c-.516-.688-4.815-3.1-4.815-3.1V131.8l-11.007-3.1s-1.032,8.255-1.72,8.771-5.5,1.548-5.5,1.548c-2.752,1.032-2.752,6.191.344,9.287,6.019-1.892,12.726-10.318,15.65-9.115,1.892.688,3.1,3.1,3.783,5.159C587.975,141.6,588.835,138.675,588.491,138.159Z" transform="translate(-556.927 -105.443)" fill="#e0b3b9"/>
          <path id="Path_1955" data-name="Path 1955" d="M590.866,132.242c0-1.548-1.376-3.1-1.376-5.159,0-1.032.172-2.064.172-3.1,0-1.376-1.548-2.752-3.784-2.064.688-1.892,0-4.643-1.548-4.471-.688,0-1.376.688-2.408.688-2.408,0-2.752-2.58-4.815-2.924-1.548-.344-2.924,1.548-2.408,4.3-3.268.688-6.535,2.236-6.535,5.675,0,2.58,1.892,4.471,1.892,6.707,0,4.127-8.943,1.376-10.318,9.975a7.666,7.666,0,0,0,3.268,7.567c-2.924,3.783.86,6.879,3.268,6.879,6.535,0,12.726-4.815,11.866-10.319-.688-5.5-5.5-10.319-1.032-12.9,1.548-.86,3.1,2.752,4.128,2.752h0c1.2,0,2.236-.688,3.268-.688,2.752,0,2.236,3.955,2.236,6.535v3.268c0,2.58,3.783,2.064,3.783,3.268h0c0,1.376-1.72,2.58-1.2,4.471,1.2,4.471,7.223,2.064,7.739-1.2,1.032-7.051-7.567-5.675-7.567-12.554C589.147,135.854,590.866,134.822,590.866,132.242Z" transform="translate(-559.646 -115.177)" fill="#0f2137"/>
          <path id="Path_1956" data-name="Path 1956" d="M576.731,118.8c1.548,0,7.223,4.3,5.847,14.274s-8.943,8.943-13.586,2.752c0,0-1.032-2.58,0-4.127,1.376-1.892,3.1-2.58,3.955-6.535C573.463,122.068,574.151,118.972,576.731,118.8Z" transform="translate(-553.25 -112.569)" fill="#ffd4cb"/>
        </g>
        <g id="Group_2919" data-name="Group 2919" transform="translate(120.312 77.662)">
          <g id="Group_2918" data-name="Group 2918">
            <path id="Path_1957" data-name="Path 1957" d="M560.124,136.7l3.268,5.159a6.033,6.033,0,0,0,3.955,2.752h0a6.987,6.987,0,0,1,3.955,2.752L583.684,166.8s1.032,1.548-3.611,4.471-5.5,1.376-5.5,1.376L562.187,153.21a6.346,6.346,0,0,1-.86-4.643h0a6.345,6.345,0,0,0-.86-4.643l-3.268-5.159Z" transform="translate(-554.893 -133.533)" fill="#fff"/>
            <path id="Path_1958" data-name="Path 1958" d="M561.089,138.025l-3.1,1.892c-.172.172-.344,0-.516-.172l-1.548-2.408c-.172-.172,0-.344.172-.516l3.1-1.892c.172-.172.344,0,.516.172l1.548,2.408C561.261,137.681,561.261,138.025,561.089,138.025Z" transform="translate(-555.859 -134.859)" fill="#fff"/>
          </g>
          <path id="Path_1959" data-name="Path 1959" d="M557.1,165.95a6.746,6.746,0,0,1,3.783-6.363,13.649,13.649,0,0,0,3.268-2.064s-.172-1.376-.344-2.58.516-1.548,1.376-2.752a13.167,13.167,0,0,1,3.268-2.752c1.376-1.2,2.752-2.236,3.268-1.548s-.344,2.236-1.376,2.752a11.2,11.2,0,0,0-2.408,2.064l-.344,1.892A17.2,17.2,0,0,0,570,152.88c.688-.688,5.159-4.471,5.675-4.471a6.541,6.541,0,0,1,2.064,3.439,5.844,5.844,0,0,1-.86,2.408s1.376-.344,1.376.344a9.676,9.676,0,0,1-1.2,3.1,37.546,37.546,0,0,1-3.783,3.611c-.516.344-2.064,1.548-2.408,1.72a24.505,24.505,0,0,1-2.752.516s-.516.688-.516,3.1-1.376,4.643-4.128,4.643C560.2,171.281,557.1,168.014,557.1,165.95Z" transform="translate(-554.965 -125.636)" fill="#ffd4cb"/>
          <path id="Path_1960" data-name="Path 1960" d="M568.85,158.107c-1.032-1.376-5.331-5.675-5.159-6.707a1.55,1.55,0,0,0-.172.86c.172,1.032.344,2.58.344,2.58a8.161,8.161,0,0,1,2.236,2.924c.86,1.72-.516,5.159-3.1,7.395a4.377,4.377,0,0,1-5.5.172,7.2,7.2,0,0,0,5.5,3.439c2.751,0,4.127-2.408,4.127-4.643,0-2.408.516-3.1.516-3.1a24.5,24.5,0,0,0,2.752-.516C569.366,160,569.882,159.483,568.85,158.107Z" transform="translate(-554.677 -122.953)" fill="#e0b3b9"/>
        </g>
        <g id="Group_2922" data-name="Group 2922" transform="translate(167.275 62.599)">
          <path id="Path_1961" data-name="Path 1961" d="M597.769,131.587a8.2,8.2,0,0,1-4.127-1.892c-1.032-.86-2.58.86-.516,2.752.86.86,3.955,1.2,3.955,1.2Z" transform="translate(-576.732 -123.676)" fill="#ffd4cb"/>
          <g id="Group_2920" data-name="Group 2920">
            <path id="Path_1962" data-name="Path 1962" d="M605.58,129.548l-2.58,5.5a5.886,5.886,0,0,0-.172,4.815h0a6.659,6.659,0,0,1-.172,4.815l-9.631,20.809s-.86,1.72-5.675-.688c-4.987-2.236-4.127-3.955-4.127-3.955l9.631-20.809a6.4,6.4,0,0,1,3.44-3.268h0a5.848,5.848,0,0,0,3.439-3.268l2.58-5.5Z" transform="translate(-583.167 -124.732)" fill="#fcfeff"/>
            <path id="Path_1963" data-name="Path 1963" d="M597.639,130.915l-3.268-1.548c-.172,0-.172-.344-.172-.516l1.2-2.58c0-.172.344-.172.516-.172l3.268,1.548c.172,0,.172.344.172.516l-1.2,2.58C597.984,130.915,597.812,131.087,597.639,130.915Z" transform="translate(-575.226 -126.1)" fill="#fcfeff"/>
          </g>
          <g id="Group_2921" data-name="Group 2921" transform="translate(11.009 8.083)">
            <path id="Path_1964" data-name="Path 1964" d="M595.1,141.607c1.376-.516,3.439,5.159,3.783,6.879s.688,6.191,5.847,5.847,6.191-3.611,6.363-4.643,0-6.879-4.127-9.459c-4.471-2.58-6.707-2.58-9.115-5.331Z" transform="translate(-585.588 -127.849)" fill="#ffd4cb"/>
            <path id="Path_1965" data-name="Path 1965" d="M604.73,153.613a9.011,9.011,0,0,0,4.471-1.72c-5.675-.172-11.522-12.9-12.21-15.994l-1.892,4.815c1.376-.516,3.439,5.159,3.783,6.879C599.227,149.486,599.571,154.129,604.73,153.613Z" transform="translate(-585.587 -127.129)" fill="#e0b3b9"/>
            <path id="Path_1966" data-name="Path 1966" d="M593.578,134.583s-.86-1.548.516-1.892c1.2-.344,4.3-.344,4.987-.688l.516-1.2s1.72.344,2.064,1.2.172,2.064,1.032,2.752-.344,8.083-.86,8.6a17.221,17.221,0,0,1-3.612,1.72c-.516.172-5.159-.688-5.331-1.032s-.172-1.72,1.032-1.548a16.549,16.549,0,0,0,3.1,0s2.408-.86,2.408-1.548v-.516h-7.739c-1.032,0-2.408-.516-2.064-1.548s0-3.612.86-3.955A11.847,11.847,0,0,1,593.578,134.583Z" transform="translate(-589.569 -130.8)" fill="#ffd4cb"/>
          </g>
        </g>
        <g id="Group_2926" data-name="Group 2926" transform="translate(126.402 142.567)">
          <g id="Group_2924" data-name="Group 2924" transform="translate(0 0.344)">
            <g id="Group_2923" data-name="Group 2923">
              <path id="Path_1967" data-name="Path 1967" d="M582.961,284.756c1.032,1.032,1.72,1.72,2.924.86v-8.427c0-2.924-1.032-14.274,1.548-26.828,2.752-12.726-2.752-16.338-4.3-22.7-1.548-6.191,1.548-54.86,1.548-54.86H559.4c0,27.344,8.943,51.421,11.35,56.236a13.937,13.937,0,0,1,0,6.535c-.86,3.783-.516,14.79,2.752,23.217s3.783,26.484,3.783,26.484A3.64,3.64,0,0,1,582.961,284.756Z" transform="translate(-559.4 -172.8)" fill="#0d415d"/>
              <path id="Path_1968" data-name="Path 1968" d="M585.037,244.363a49.337,49.337,0,0,0-2.752-5.159c-1.2,1.032-1.72.172-2.924-.86a3.553,3.553,0,0,0-5.5.516l-6.019,4.815-3.439,2.408v3.783h20.981S585.9,246.427,585.037,244.363Z" transform="translate(-555.801 -126.388)" fill="#0d415d"/>
              <path id="Path_1969" data-name="Path 1969" d="M581.115,243.775a49.326,49.326,0,0,0-2.752-5.159c-1.032.86-1.548.344-2.58-.516-1.376,2.408-7.223,7.223-5.675,11.178h11.178A9.814,9.814,0,0,0,581.115,243.775Z" transform="translate(-551.879 -125.8)" fill="#0d415d"/>
            </g>
            <path id="Path_1970" data-name="Path 1970" d="M574.362,181.6c-1.892,25.108-5.675,47.121-3.612,49.7s3.956,17.026,4.643,21.153,1.032,24.936.172,26.312c.86.86,1.548,1.376,2.58.516v-8.427c0-2.924-1.032-14.274,1.548-26.828,2.752-12.726-2.752-16.338-4.3-22.7-.86-3.268-.344-17.37.172-30.44Z" transform="translate(-551.661 -166.466)" fill="#002e49"/>
          </g>
          <g id="Group_2925" data-name="Group 2925" transform="translate(21.921)">
            <path id="Path_1971" data-name="Path 1971" d="M584.276,284.556c1.72.86,2.236.516,2.236.516a31.966,31.966,0,0,1,.86-15.994c2.924-8.255,3.611-17.369,1.376-29.58-2.236-12.038,12.726-43.51,8.6-66.9H572.754c0,3.44.86,10.662,0,15.306s-.86,37.663.344,41.274,2.408,4.987,2.752,9.975c.172,4.815-1.892,7.223,0,18.057s2.236,27.86,2.236,27.86C579.117,283.7,582.557,283.7,584.276,284.556Z" transform="translate(-572.147 -172.6)" fill="#0d415d"/>
            <path id="Path_1972" data-name="Path 1972" d="M586.574,238.458s-.516.344-2.236-.516-5.159-.86-6.191.688l-2.924,4.987L572.3,246.2v3.44h17.714s1.032-2.752-.86-6.535C587.09,239.49,586.574,238.458,586.574,238.458Z" transform="translate(-572.036 -125.986)" fill="#0d415d"/>
          </g>
        </g>
      </g>
    </g>
  </g>
</svg>
